<svg width="52" height="52" viewBox="0 0 52 52" fill="none" xmlns="http://www.w3.org/2000/svg">
<g id="eyes-57">
<path id="Vector" d="M7.68005 31.5198V31.4698C7.68005 29.5814 8.052 27.7115 8.77467 25.9669C9.49733 24.2222 10.5566 22.637 11.8919 21.3016C13.2272 19.9663 14.8124 18.9071 16.5571 18.1845C18.3017 17.4618 20.1716 17.0898 22.0601 17.0898C23.9485 17.0898 25.8184 17.4618 27.563 18.1845C29.3077 18.9071 30.8929 19.9663 32.2282 21.3016C33.5636 22.637 34.6228 24.2222 35.3454 25.9669C36.0681 27.7115 36.4401 29.5814 36.4401 31.4698V31.5198C31.693 32.3562 26.8801 32.7612 22.0601 32.7298C17.24 32.7616 12.427 32.3566 7.68005 31.5198Z" fill="white"/>
<path id="Vector_2" d="M13.7 25.2201C13.7679 27.2785 14.6471 29.2265 16.1459 30.639C17.6446 32.0516 19.6412 32.8141 21.7 32.7601C23.758 32.8114 25.7531 32.0481 27.2512 30.6361C28.7494 29.2241 29.6294 27.2776 29.7 25.2201C29.632 23.1609 28.7531 21.2119 27.2546 19.7978C25.7562 18.3836 23.7597 17.6189 21.7 17.6701C19.6395 17.6163 17.6415 18.3801 16.1424 19.7948C14.6434 21.2095 13.7653 23.16 13.7 25.2201Z" fill="#6C7070"/>
<path id="Vector_3" d="M17.71 25.2198C17.7439 26.249 18.1836 27.223 18.9329 27.9292C19.6823 28.6355 20.6806 29.0168 21.71 28.9898C22.7394 29.0168 23.7376 28.6355 24.487 27.9292C25.2364 27.223 25.676 26.249 25.71 25.2198C25.6786 24.1889 25.2401 23.2123 24.4904 22.5039C23.7408 21.7955 22.741 21.4129 21.71 21.4398C20.6789 21.4129 19.6791 21.7955 18.9295 22.5039C18.1798 23.2123 17.7413 24.1889 17.71 25.2198Z" fill="#0010BF"/>
<path id="Vector_4" d="M7.68005 31.5198V31.4698C7.68005 29.5814 8.052 27.7115 8.77467 25.9669C9.49733 24.2222 10.5566 22.637 11.8919 21.3016C13.2272 19.9663 14.8124 18.9071 16.5571 18.1845C18.3017 17.4618 20.1716 17.0898 22.0601 17.0898C23.9485 17.0898 25.8184 17.4618 27.563 18.1845C29.3077 18.9071 30.8929 19.9663 32.2282 21.3016C33.5636 22.637 34.6228 24.2222 35.3454 25.9669C36.0681 27.7115 36.4401 29.5814 36.4401 31.4698V31.5198C31.693 32.3562 26.8801 32.7612 22.0601 32.7298C17.24 32.7616 12.427 32.3566 7.68005 31.5198Z" stroke="#0010BF" stroke-width="3.28"/>
<path id="Vector_5" d="M27 38.4702C24.84 38.5902 21.69 38.4702 19.4 38.4102C16.3459 38.3052 13.3041 37.971 10.3 37.4102" stroke="#0010BF" stroke-width="2.93"/>
</g>
</svg>
