<svg width="52" height="52" viewBox="0 0 52 52" fill="none" xmlns="http://www.w3.org/2000/svg">
<g id="eyes-28">
<path id="Vector" d="M8.31006 30.4901C8.31006 30.4901 10.3101 22.1301 18.3101 19.0401C21.2563 17.8743 24.4673 17.5449 27.5889 18.0884C30.7104 18.6319 33.6212 20.0271 36.0001 22.1201C36.0001 22.1201 33.9001 30.8001 25.1901 33.0001C16.2701 35.2801 8.31006 30.4901 8.31006 30.4901Z" fill="white"/>
<path id="Vector_2" d="M11.73 26.3001C11.73 27.865 12.1942 29.3947 13.0638 30.6957C13.9334 31.9968 15.1693 33.0106 16.6153 33.609C18.0612 34.2074 19.6522 34.3634 21.1868 34.0574C22.7215 33.7514 24.1309 32.997 25.2367 31.8898C26.3426 30.7826 27.0951 29.3722 27.3992 27.8372C27.7033 26.3021 27.5452 24.7114 26.945 23.2662C26.3448 21.821 25.3294 20.5863 24.0273 19.7184C22.7252 18.8504 21.1949 18.3882 19.63 18.3901C18.5917 18.3901 17.5636 18.5948 16.6045 18.9925C15.6454 19.3901 14.774 19.9729 14.0403 20.7075C13.3066 21.4422 12.7249 22.3142 12.3285 23.2739C11.932 24.2335 11.7287 25.2619 11.73 26.3001Z" fill="#6C7070"/>
<path id="Vector_3" d="M15.6801 26.3001C15.6801 27.0934 15.916 27.8687 16.3578 28.5275C16.7996 29.1863 17.4273 29.699 18.1611 30.0002C18.8949 30.3014 19.7017 30.3776 20.479 30.2192C21.2562 30.0608 21.9688 29.6748 22.5262 29.1104C23.0836 28.546 23.4605 27.8286 23.6092 27.0494C23.7578 26.2702 23.6715 25.4644 23.361 24.7344C23.0506 24.0044 22.5301 23.3833 21.8658 22.9498C21.2015 22.5163 20.4232 22.2902 19.6301 22.3001C18.5779 22.3133 17.5733 22.7405 16.8339 23.4892C16.0945 24.2379 15.68 25.2479 15.6801 26.3001Z" fill="#0010BF"/>
<path id="Vector_4" d="M8.31006 30.4901C8.31006 30.4901 10.3101 22.1301 18.3101 19.0401C21.2563 17.8743 24.4673 17.5449 27.5889 18.0884C30.7104 18.6319 33.6212 20.0271 36.0001 22.1201C36.0001 22.1201 33.9001 30.8001 25.1901 33.0001C16.2701 35.2801 8.31006 30.4901 8.31006 30.4901Z" stroke="#0010BF" stroke-width="3.28"/>
</g>
</svg>
