<svg width="52" height="52" viewBox="0 0 52 52" fill="none" xmlns="http://www.w3.org/2000/svg">
<g id="eyes-13">
<path id="Vector" d="M13.8099 27.4498C13.808 28.8795 14.2305 30.2776 15.024 31.4668C15.8175 32.6561 16.9461 33.5831 18.267 34.1302C19.5879 34.6773 21.0414 34.8199 22.4434 34.54C23.8454 34.2601 25.1328 33.5703 26.1423 32.558C27.1519 31.5456 27.8381 30.2564 28.1141 28.8536C28.3901 27.4508 28.2434 25.9976 27.6927 24.6783C27.1419 23.359 26.2118 22.2328 25.0203 21.4427C23.8289 20.6525 22.4296 20.2339 20.9999 20.2398C19.092 20.2477 17.2648 21.0105 15.9175 22.3615C14.5703 23.7125 13.8126 25.5419 13.8099 27.4498Z" fill="#6C7070"/>
<path id="Vector_2" d="M17.4201 27.4502C17.4181 28.1659 17.6289 28.866 18.0257 29.4616C18.4225 30.0572 18.9874 30.5215 19.6486 30.7953C20.3099 31.0692 21.0376 31.1403 21.7393 30.9997C22.441 30.8591 23.0851 30.5131 23.5898 30.0056C24.0945 29.4982 24.4369 28.8521 24.5736 28.1496C24.7103 27.4471 24.6351 26.7198 24.3575 26.0601C24.08 25.4005 23.6126 24.8382 23.0148 24.4447C22.417 24.0512 21.7157 23.8443 21.0001 23.8502C20.0487 23.8555 19.1382 24.2371 18.4674 24.9117C17.7966 25.5862 17.42 26.4989 17.4201 27.4502Z" fill="#0010BF"/>
<path id="Vector_3" d="M36.41 32.1402C36.41 32.1402 38.87 22.8502 30.8 18.5102C22.73 14.1702 13.8 18.3702 8 31.6502" stroke="#0010BF" stroke-width="3.28"/>
</g>
</svg>
