<svg width="52" height="52" viewBox="0 0 52 52" fill="none" xmlns="http://www.w3.org/2000/svg">
<g id="eyes-53">
<path id="Vector" d="M10.0001 22.19C12.7401 19.19 17.2101 18.54 22.0001 18.54C26.7901 18.54 31.2701 19.21 34.0001 22.19C37.0001 25.46 36.5901 30.74 31.7901 32.13C27.9901 33.23 26.4601 32.56 21.9901 32.56C17.5201 32.56 15.9901 33.23 12.1901 32.13C7.38005 30.74 7.00005 25.46 10.0001 22.19Z" fill="white"/>
<path id="Vector_2" d="M16.69 24.28C16.688 25.3259 16.9961 26.3488 17.5752 27.2196C18.1544 28.0904 18.9787 28.77 19.944 29.1725C20.9093 29.575 21.9722 29.6824 22.9985 29.481C24.0248 29.2796 24.9683 28.7786 25.7099 28.0412C26.4515 27.3038 26.9579 26.3631 27.1651 25.338C27.3723 24.3128 27.271 23.2493 26.8739 22.2818C26.4769 21.3142 25.802 20.4861 24.9345 19.902C24.067 19.3179 23.0458 19.004 22 19C21.3044 18.9974 20.6152 19.132 19.9717 19.396C19.3283 19.6601 18.7432 20.0484 18.25 20.5388C17.7567 21.0292 17.3651 21.6121 17.0974 22.2541C16.8297 22.896 16.6913 23.5845 16.69 24.28Z" fill="#6C7070"/>
<path id="Vector_3" d="M19.33 24.28C19.33 24.8032 19.4849 25.3148 19.7752 25.7501C20.0655 26.1855 20.4782 26.5251 20.9613 26.7263C21.4443 26.9274 21.9761 26.981 22.4896 26.8804C23.0031 26.7798 23.4753 26.5294 23.8467 26.1607C24.2181 25.7921 24.4721 25.3218 24.5766 24.8091C24.6811 24.2964 24.6314 23.7642 24.4339 23.2796C24.2364 22.7951 23.8999 22.3798 23.4667 22.0863C23.0336 21.7927 22.5232 21.6339 22 21.63C21.6503 21.6273 21.3035 21.6939 20.9797 21.8259C20.6559 21.9579 20.3614 22.1527 20.1132 22.399C19.865 22.6454 19.668 22.9384 19.5336 23.2612C19.3991 23.584 19.3299 23.9303 19.33 24.28Z" fill="#0010BF"/>
<path id="Vector_4" d="M10.0001 22.19C12.7401 19.19 17.2101 18.54 22.0001 18.54C26.7901 18.54 31.2701 19.21 34.0001 22.19C37.0001 25.46 36.5901 30.74 31.7901 32.13C27.9901 33.23 26.4601 32.56 21.9901 32.56C17.5201 32.56 15.9901 33.23 12.1901 32.13C7.38005 30.74 7.00005 25.46 10.0001 22.19Z" stroke="#0010BF" stroke-width="3.28"/>
</g>
</svg>
