<svg width="52" height="52" viewBox="0 0 52 52" fill="none" xmlns="http://www.w3.org/2000/svg">
<g id="eyes-11">
<path id="Vector" d="M9.05005 27.6899C9.05005 30.0633 9.75384 32.3834 11.0724 34.3568C12.391 36.3302 14.2651 37.8682 16.4578 38.7765C18.6506 39.6847 21.0634 39.9224 23.3911 39.4594C25.7189 38.9963 27.8571 37.8535 29.5353 36.1752C31.2136 34.497 32.3565 32.3588 32.8195 30.031C33.2825 27.7033 33.0449 25.2905 32.1366 23.0977C31.2284 20.905 29.6903 19.0309 27.7169 17.7123C25.7435 16.3937 23.4234 15.6899 21.05 15.6899C17.8674 15.6899 14.8152 16.9542 12.5648 19.2047C10.3143 21.4551 9.05005 24.5073 9.05005 27.6899Z" fill="#6C7070"/>
<path id="Vector_2" d="M15.0699 27.6899C15.0699 28.8766 15.4218 30.0367 16.0811 31.0234C16.7404 32.0101 17.6775 32.7791 18.7738 33.2332C19.8702 33.6873 21.0766 33.8062 22.2405 33.5747C23.4044 33.3431 24.4735 32.7717 25.3126 31.9326C26.1517 31.0935 26.7231 30.0244 26.9547 28.8605C27.1862 27.6966 27.0673 26.4902 26.6132 25.3938C26.1591 24.2975 25.3901 23.3604 24.4034 22.7011C23.4167 22.0418 22.2566 21.6899 21.0699 21.6899C19.4786 21.6899 17.9525 22.3221 16.8273 23.4473C15.7021 24.5725 15.0699 26.0986 15.0699 27.6899Z" fill="#0010BF"/>
<path id="Vector_3" d="M24.37 19.3701L26.05 22.7301L29.41 24.4101L26.05 26.1001L24.37 29.4601L22.69 26.1001L19.33 24.4101L22.69 22.7301L24.37 19.3701ZM16.81 27.9401L18.15 30.6301L20.84 31.9801L18.15 33.3201L16.81 36.0101L15.46 33.3201L12.77 31.9801L15.46 30.6301L16.81 27.9401Z" fill="white"/>
<path id="Vector_4" d="M34.78 28.24C34.6836 24.6745 33.1996 21.2875 30.6436 18.7997C28.0877 16.3119 24.6618 14.9199 21.095 14.9199C17.5283 14.9199 14.1024 16.3119 11.5464 18.7997C8.99052 21.2875 7.50642 24.6745 7.41003 28.24" stroke="#0010BF" stroke-width="3.28"/>
<path id="Vector_5" d="M41.32 26.4802L34.94 27.0002V23.7402L41.32 24.2902V26.4802ZM40.17 19.7002L34.5 22.7002L33.2201 19.7002L39.32 17.7002L40.17 19.7002ZM36.4701 13.8902L32.41 18.8902L30.05 16.6002L34.9001 12.4102L36.4701 13.8902Z" fill="#0010BF"/>
</g>
</svg>
