<svg width="52" height="52" viewBox="0 0 52 52" fill="none" xmlns="http://www.w3.org/2000/svg">
<g id="eyes-20">
<path id="Vector" d="M37.88 39.8298L31.59 35.7398L28.83 33.6398L30.82 31.0298L33.58 33.1298L39.21 38.0798L37.88 39.8298Z" fill="#0010BF"/>
<path id="Vector_2" d="M11.22 25.9198C11.1903 28.0895 11.8059 30.2191 12.9887 32.0384C14.1715 33.8576 15.8681 35.2844 17.8632 36.1376C19.8584 36.9909 22.062 37.2321 24.1945 36.8307C26.3269 36.4293 28.2921 35.4034 29.8405 33.8832C31.3888 32.363 32.4506 30.417 32.8911 28.2923C33.3315 26.1675 33.1307 23.9598 32.3142 21.9494C31.4977 19.9389 30.1023 18.2164 28.3051 17.0005C26.5079 15.7845 24.3899 15.1299 22.22 15.1198C20.7879 15.104 19.3667 15.3711 18.038 15.9057C16.7093 16.4404 15.4993 17.2322 14.4773 18.2356C13.4553 19.239 12.6415 20.4343 12.0825 21.7529C11.5236 23.0716 11.2305 24.4876 11.22 25.9198Z" fill="white"/>
<path id="Vector_3" d="M9.66005 25.85C9.65657 27.8828 10.1485 29.8858 11.0933 31.6857C12.0381 33.4856 13.4073 35.0281 15.0823 36.1799C16.7574 37.3316 18.6879 38.0577 20.7067 38.2955C22.7256 38.5333 24.772 38.2755 26.6688 37.5445C28.5656 36.8135 30.2557 35.6312 31.5928 34.1001C32.9299 32.569 33.8738 30.735 34.3427 28.7571C34.8116 26.7791 34.7914 24.7166 34.2839 22.7482C33.7764 20.7798 32.7969 18.9647 31.4301 17.46" stroke="#0010BF" stroke-width="3.28"/>
<path id="Vector_4" d="M12.1899 24.32C12.1899 26.1178 12.7231 27.8753 13.7219 29.3701C14.7207 30.865 16.1404 32.03 17.8013 32.718C19.4623 33.406 21.29 33.5861 23.0533 33.2353C24.8166 32.8846 26.4363 32.0188 27.7075 30.7476C28.9788 29.4763 29.8445 27.8566 30.1953 26.0934C30.546 24.3301 30.366 22.5024 29.678 20.8414C28.99 19.1804 27.8249 17.7607 26.3301 16.7619C24.8352 15.7631 23.0778 15.23 21.2799 15.23C18.8691 15.23 16.557 16.1877 14.8523 17.8924C13.1476 19.5971 12.1899 21.9092 12.1899 24.32Z" fill="#6C7070"/>
<path id="Vector_5" d="M16.73 24.32C16.73 25.2199 16.9968 26.0996 17.4968 26.8479C17.9968 27.5961 18.7074 28.1793 19.5388 28.5237C20.3702 28.868 21.285 28.9582 22.1676 28.7826C23.0503 28.607 23.861 28.1737 24.4973 27.5374C25.1336 26.901 25.567 26.0903 25.7426 25.2077C25.9181 24.3251 25.828 23.4102 25.4836 22.5788C25.1393 21.7474 24.5561 21.0368 23.8078 20.5368C23.0596 20.0369 22.1799 19.77 21.28 19.77C20.0732 19.77 18.9159 20.2494 18.0626 21.1027C17.2094 21.956 16.73 23.1133 16.73 24.32Z" fill="#0010BF"/>
</g>
</svg>
