<svg width="52" height="52" viewBox="0 0 52 52" fill="none" xmlns="http://www.w3.org/2000/svg">
<g id="eyes-18">
<path id="Vector" d="M9.96997 29.4198L36.24 29.6098L34.52 26.9498L12.62 25.3198L9.96997 29.4198Z" fill="white"/>
<path id="Vector_2" d="M12.43 23.22C12.43 23.22 13.24 16.92 17.27 17.38L31.32 18.84C35.32 19.3 35.51 25.84 35.51 25.84C35.51 25.84 37.61 34.69 21.51 34.01C6.39999 33.38 12.43 23.22 12.43 23.22Z" fill="white"/>
<path id="Vector_3" d="M15.3999 20.1001L23.2799 20.5901L30.9999 21.1001C31.2337 21.4953 31.3835 21.9344 31.4399 22.3901V23.0501C31.2607 25.1811 30.2876 27.1671 28.7133 28.6146C27.139 30.062 25.0785 30.8653 22.9399 30.8653C20.8014 30.8653 18.7408 30.062 17.1666 28.6146C15.5923 27.1671 14.6191 25.1811 14.4399 23.0501V22.0001C14.594 21.2957 14.9243 20.642 15.3999 20.1001Z" fill="#6C7070"/>
<path id="Vector_4" d="M18.6899 23.05C18.69 23.8928 18.9394 24.7167 19.4069 25.418C19.8743 26.1194 20.5389 26.6666 21.3168 26.991C22.0947 27.3153 22.9512 27.4022 23.7784 27.2406C24.6056 27.0791 25.3664 26.6763 25.9652 26.0832C26.5639 25.49 26.9737 24.7329 27.143 23.9073C27.3122 23.0816 27.2333 22.2243 26.9163 21.4434C26.5992 20.6625 26.0581 19.9929 25.3612 19.519C24.6643 19.045 23.8427 18.7879 22.9999 18.78C22.4358 18.7747 21.8763 18.8812 21.3536 19.0935C20.8309 19.3057 20.3555 19.6194 19.9547 20.0164C19.554 20.4134 19.2358 20.8859 19.0188 21.4066C18.8017 21.9273 18.6899 22.4858 18.6899 23.05Z" fill="#0010BF"/>
<path id="Vector_5" d="M37.05 28.7299C37.32 23.7299 34.21 20.4699 30.55 20.2299L16.13 19.2999C12.47 19.0599 9.65 21.9799 9.38 26.9399" stroke="#0010BF" stroke-width="4.38"/>
<path id="Vector_6" d="M36.0001 30.8101C32.2462 33.3464 27.8102 34.6821 23.2801 34.6401C18.7499 34.6821 14.3139 33.3464 10.5601 30.8101" stroke="#0010BF" stroke-width="3.28"/>
</g>
</svg>
