<svg width="52" height="52" viewBox="0 0 52 52" fill="none" xmlns="http://www.w3.org/2000/svg">
<g id="glasses-13">
<path id="Vector" d="M26 42.0902C34.8863 42.0902 42.09 34.8864 42.09 26.0002C42.09 17.1139 34.8863 9.91016 26 9.91016C17.1137 9.91016 9.91 17.1139 9.91 26.0002C9.91 34.8864 17.1137 42.0902 26 42.0902Z" fill="white" stroke="#BFBEBD" stroke-width="2.48"/>
<path id="Subtract" fill-rule="evenodd" clip-rule="evenodd" d="M28.9162 20.8416C29.9554 19.9401 31.2843 19.4426 32.66 19.4399H32.71C33.837 19.4382 34.9394 19.7694 35.8788 20.392C36.8183 21.0146 37.5529 21.9008 37.9904 22.9394C38.4279 23.978 38.5488 25.1228 38.338 26.2299C38.1272 27.337 37.594 28.3572 36.8054 29.1623C36.0169 29.9675 35.008 30.5217 33.9055 30.7555C32.803 30.9893 31.656 30.8922 30.6085 30.4764C29.561 30.0606 28.6597 29.3446 28.0177 28.4183C27.3757 27.492 27.0217 26.3967 27 25.2699H25.06C25.0365 26.7389 24.4458 28.1418 23.4114 29.1851C22.3771 30.2284 20.9792 30.8312 19.5105 30.8673C18.0418 30.9034 16.6161 30.37 15.5317 29.3788C14.4474 28.3876 13.7884 27.0154 13.6928 25.5493C13.5972 24.0833 14.0723 22.6371 15.0188 21.5134C15.9652 20.3898 17.3096 19.6757 18.7706 19.5208C20.2315 19.3658 21.6958 19.7819 22.8569 20.682C24.018 21.5822 24.7859 22.8965 25 24.3499H27C27.1969 22.9884 27.877 21.7431 28.9162 20.8416ZM16.6751 29.1368C17.4643 29.6623 18.3918 29.9418 19.34 29.9399C20.6069 29.9372 21.8212 29.4328 22.7171 28.5369C23.6129 27.6411 24.1174 26.4268 24.12 25.1599C24.122 24.2116 23.8425 23.2842 23.3169 22.4949C22.7913 21.7057 22.0433 21.0902 21.1677 20.7264C20.292 20.3626 19.3281 20.2669 18.398 20.4514C17.4679 20.6359 16.6135 21.0923 15.943 21.7628C15.2725 22.4333 14.8161 23.2877 14.6316 24.2178C14.4471 25.1479 14.5428 26.1119 14.9065 26.9875C15.2703 27.8632 15.8858 28.6112 16.6751 29.1368ZM37.45 25.1599C37.45 27.8053 35.3054 29.9499 32.66 29.9499C30.0146 29.9499 27.87 27.8053 27.87 25.1599C27.87 22.5144 30.0146 20.3699 32.66 20.3699C35.3054 20.3699 37.45 22.5144 37.45 25.1599Z" fill="#030303"/>
<g id="Vector_2">
<path d="M19.34 29.9399C18.3918 29.9418 17.4643 29.6623 16.6751 29.1368C15.8858 28.6112 15.2703 27.8632 14.9065 26.9875C14.5428 26.1119 14.4471 25.1479 14.6316 24.2178C14.8161 23.2877 15.2725 22.4333 15.943 21.7628C16.6135 21.0923 17.4679 20.6359 18.398 20.4514C19.3281 20.2669 20.292 20.3626 21.1677 20.7264C22.0433 21.0902 22.7913 21.7057 23.3169 22.4949C23.8425 23.2842 24.122 24.2116 24.12 25.1599C24.1174 26.4268 23.6129 27.6411 22.7171 28.5369C21.8212 29.4328 20.6069 29.9372 19.34 29.9399Z" fill="#F60000"/>
<path d="M32.66 29.9499C35.3054 29.9499 37.45 27.8053 37.45 25.1599C37.45 22.5144 35.3054 20.3699 32.66 20.3699C30.0146 20.3699 27.87 22.5144 27.87 25.1599C27.87 27.8053 30.0146 29.9499 32.66 29.9499Z" fill="#F60000"/>
</g>
</g>
</svg>
