<!-- <svg width="52" height="52" viewBox="0 0 52 52" fill="none" xmlns="http://www.w3.org/2000/svg">
<path d="M25.8719 11.061C18.8339 11.061 14.5129 17.385 15.0439 26.061C15.5079 33.641 19.9169 38.978 25.8719 38.978C31.8269 38.978 36.2359 33.641 36.6999 26.061C37.2309 17.385 32.9099 11.061 25.8719 11.061Z" fill="white" stroke="#6F6F6F" stroke-width="2.475"/>
<path d="M34.1149 13.1271L34.4683 7.82621C34.5495 6.60847 33.1987 5.82661 32.1832 6.50359L26.4799 10.3058C25.7235 10.2522 24.945 10.2628 24.1502 10.3513L19.113 6.89318C18.172 6.24718 16.8857 6.87158 16.8111 8.01054L16.4291 13.8486C15.9792 14.2258 15.5304 14.6369 15.0837 15.0837L15.9163 15.9163C16.402 15.4306 16.8877 14.9919 17.3722 14.5967C19.6673 12.7244 21.9425 11.8225 24.0756 11.5463C24.9339 11.4351 25.7733 11.4248 26.5861 11.4953C29.1204 11.7151 31.4006 12.722 33.1774 13.9123C34.1488 14.563 34.9611 15.2628 35.5737 15.906L36.4263 15.094C35.8143 14.4513 35.0331 13.7693 34.1149 13.1271Z" fill="#808080" stroke="#404040" stroke-width="1.17753"/>
</svg> -->
<svg width="52" height="52" viewBox="0 0 52 52" fill="none" xmlns="http://www.w3.org/2000/svg">
    <path d="m30.3 12.7c0 0 6-5 10.7-5.7 0.6 4 0.8 7.9 0.3 9.7-0.5 1.8-2.4 5.1-4 6-1.6 0.9-2.1-5-2.1-5z"
        fill="var(--icon-hat-fill)"></path>
    <path d="m31.7 13.5c0 0 3.7-2.6 7.2-3.1 0.4 2.9 0.6 5.8 0.2 7.1-0.4 1.3-1.8 3.8-3 4.4-1.2 0.7-0.5-4-0.5-4z"
        fill="var(--icon-hat-stroke)"></path>
    <path d="m21.7 12.7c0 0-6-5-10.7-5.7-0.6 4-0.8 7.9-0.3 9.7 0.5 1.8 2.4 5.1 4 6 1.6 0.9 2.1-5 2.1-5z"
        fill="var(--icon-hat-fill)"></path>
    <path d="m20.3 13.5c0 0-3.7-2.6-7.2-3.1-0.4 2.9-0.6 5.8-0.2 7.1 0.4 1.3 1.8 3.8 3 4.4 1.2 0.7 0.5-4 0.5-4z"
        fill="var(--icon-hat-stroke)"></path>
    <path
        d="M26.0001 11.0762C18.9611 11.0762 14.6401 17.4002 15.1711 26.0812C15.6351 33.6612 20.0441 39.0002 26.0001 39.0002C31.9561 39.0002 36.3641 33.6632 36.8281 26.0832C37.3601 17.4002 33.0381 11.0762 26.0001 11.0762Z"
        fill="var(--icon-face-fill)" stroke="var(--icon-face-stroke)" stroke-width="2.475"></path>
</svg>