<svg width="52" height="52" viewBox="0 0 52 52" fill="none" xmlns="http://www.w3.org/2000/svg">
<path d="M25.8719 11.061C18.8339 11.061 14.5129 17.385 15.0439 26.061C15.5079 33.641 19.9169 38.978 25.8719 38.978C31.8269 38.978 36.2359 33.641 36.6999 26.061C37.2309 17.385 32.9099 11.061 25.8719 11.061Z" fill="white" stroke="#6F6F6F" stroke-width="2.475"/>
<path d="M37.2737 14.8804C37.6953 14.677 37.9287 14.2404 37.8938 13.8002C38.1213 13.8714 38.3609 13.9228 38.6193 13.9533C39.3012 14.0341 40.091 13.9673 41.1024 13.7742C41.8157 13.638 42.1755 12.8635 41.8697 12.2297L40.5998 9.59784C40.2824 8.94024 39.4172 8.76251 38.872 9.26265C38.1014 9.96968 37.5009 10.5749 37.1143 11.1476C37.0018 11.3143 36.9056 11.4809 36.8277 11.6489C36.5059 11.3824 36.0458 11.3114 35.6449 11.5049L33.56 12.5109C33.1411 12.713 32.908 13.1453 32.9392 13.5826C32.1083 13.353 31.1138 13.4182 29.7806 13.6361C29.0521 13.7551 28.6646 14.5412 28.9785 15.1918L30.2038 17.731C30.5362 18.4199 31.456 18.5711 31.9886 18.0167C32.6301 17.3489 33.1633 16.7682 33.5436 16.2212C33.6786 16.0271 33.7971 15.8334 33.8958 15.6375C34.2158 15.988 34.7395 16.1033 35.1888 15.8865L37.2737 14.8804Z" fill="#808080" stroke="#404040" stroke-width="0.88188"/>
<path d="M13.6711 16.6828C13.236 16.5102 12.9718 16.0914 12.9751 15.6498C12.7533 15.7372 12.518 15.8056 12.2625 15.8547C11.5881 15.9841 10.7955 15.9742 9.77289 15.8541C9.05171 15.7694 8.6372 15.0227 8.89674 14.3687L9.9746 11.6525C10.2439 10.9738 11.0942 10.7345 11.6738 11.1942C12.4932 11.8441 13.1356 12.4047 13.5622 12.9482C13.6864 13.1064 13.7943 13.2656 13.8841 13.4276C14.1859 13.1387 14.6397 13.0349 15.0535 13.1991L17.2052 14.053C17.6375 14.2245 17.901 14.6389 17.9013 15.0773C18.7136 14.7887 19.7102 14.7824 21.0556 14.904C21.7908 14.9705 22.2337 15.7267 21.9673 16.3982L20.9273 19.0188C20.6452 19.7297 19.7386 19.9466 19.1676 19.4318C18.4798 18.8117 17.9064 18.2708 17.4878 17.7525C17.3392 17.5686 17.2071 17.3839 17.0946 17.1956C16.8006 17.5681 16.2865 17.7207 15.8228 17.5367L13.6711 16.6828Z" fill="#808080" stroke="#404040" stroke-width="0.88188"/>
</svg>
