<svg width="52" height="52" viewBox="0 0 52 52" fill="none" xmlns="http://www.w3.org/2000/svg">
<path d="M26.0001 11.0762C18.9611 11.0762 14.6401 17.4002 15.1711 26.0812C15.6351 33.6612 20.0441 39.0002 26.0001 39.0002C31.9561 39.0002 36.3641 33.6632 36.8281 26.0832C37.3601 17.4002 33.0381 11.0762 26.0001 11.0762Z" fill="white" stroke="#6F6F6F" stroke-width="2.475"/>
<path d="M26.0001 7.53418C24.318 7.53431 22.6524 7.86576 21.0984 8.50959C19.5444 9.15342 18.1324 10.097 16.9431 11.2866C15.7538 12.4761 14.8104 13.8882 14.1668 15.4423C13.5232 16.9964 13.192 18.6621 13.1921 20.3442V22.3692H13.8561C13.8561 22.3692 15.9451 16.4902 26.0001 16.4902C36.0551 16.4902 38.1431 22.3692 38.1431 22.3692H38.8071V20.3442C38.8074 16.9472 37.4583 13.6892 35.0565 11.2869C32.6548 8.8846 29.3971 7.53471 26.0001 7.53418Z" fill="#808080"/>
<path d="M26.0001 18.669C33.0851 18.669 36.4541 21.546 37.9001 23.413C38.3293 23.2278 38.6677 22.8801 38.8411 22.446C38.8411 22.446 36.4861 16.146 26.0031 16.146C15.5201 16.146 13.1631 22.446 13.1631 22.446C13.3371 22.8804 13.6762 23.2281 14.1061 23.413C15.5451 21.546 18.9151 18.669 26.0001 18.669Z" fill="#404040"/>
<path d="M28.4191 7.77117C26.8219 7.45518 25.1782 7.45518 23.5811 7.77117C20.9331 9.11617 16.8121 12.3712 16.4871 19.6342H16.5181C16.9241 19.2727 17.3566 18.9421 17.8121 18.6452C18.5701 11.3192 23.5421 8.94517 25.3811 8.31817V16.5002C25.5811 16.4942 25.7881 16.4862 26.0001 16.4862C26.2121 16.4862 26.4141 16.4942 26.6181 16.5002V8.32017C28.4571 8.94717 33.4291 11.3202 34.1871 18.6472C34.6427 18.9438 35.0752 19.2744 35.4811 19.6362H35.5121C35.1871 12.3672 31.0661 9.11617 28.4191 7.77117Z" fill="#404040"/>
</svg>
