<svg width="52" height="52" viewBox="0 0 52 52" fill="none" xmlns="http://www.w3.org/2000/svg">
    <path d="m26 28.4c-11.7 0-21.2-2.3-21.2-5.1 0-2.9 9.5-5.2 21.2-5.2 11.6 0 21.1 2.3 21.1 5.2 0 2.8-9.5 5.1-21.1 5.1z"
        fill="var(--icon-hat-stroke)"></path>
    <path
        d="M26.0001 11.0762C18.9611 11.0762 14.6401 17.4002 15.1711 26.0812C15.6351 33.6612 20.0441 39.0002 26.0001 39.0002C31.9561 39.0002 36.3641 33.6632 36.8281 26.0832C37.3601 17.4002 33.0381 11.0762 26.0001 11.0762Z"
        fill="var(--icon-face-fill)" stroke="var(--icon-face-stroke)" stroke-width="2.475"></path>
    <path
        d="m26 18.8c-15.9 0-21.2 7.4-21.2 4.4 0-2.9 5.3-7.5 21.2-7.5 15.9 0 21.1 4.6 21.1 7.5 0 3-5.2-4.4-21.1-4.4zm0-0.1c-7.7 0-12.3 5-12.3-1.8 0-6.8 4.6-10.2 12.3-10.2 7.6 0 12.2 3.4 12.2 10.2 0 6.8-4.5 1.8-12.2 1.8z"
        fill="var(--icon-hat-fill)"></path>
    <path
        d="m4.8 23.3c0-2.9 9.5-5.2 21.2-5.2 11.6 0 21.1 2.3 21.1 5.1 0 1.2-1.6 2.3-4.2 3.1l-0.8-2.7-3.7-0.6q0.1-0.2 0.1-0.3c0-1.7-5.6-3.1-12.5-3.1-7 0-12.6 1.4-12.6 3q0 0.1 0 0.2l-3.9 0.5-0.7 3c-2.5-0.9-4-1.9-4-3z"
        fill="var(--icon-hat-stroke)"></path>
</svg>