<svg width="52" height="52" viewBox="0 0 52 52" fill="none" xmlns="http://www.w3.org/2000/svg">
<g id="eyes-42">
<path id="Vector" d="M16.84 27.5401C16.84 28.707 17.186 29.8478 17.8343 30.818C18.4826 31.7883 19.404 32.5445 20.4821 32.991C21.5602 33.4376 22.7465 33.5544 23.891 33.3268C25.0355 33.0991 26.0868 32.5372 26.9119 31.7121C27.737 30.8869 28.2989 29.8357 28.5266 28.6912C28.7543 27.5467 28.6374 26.3604 28.1909 25.2823C27.7443 24.2042 26.9881 23.2828 26.0178 22.6345C25.0476 21.9862 23.9069 21.6401 22.74 21.6401C21.176 21.6428 19.6768 22.2652 18.571 23.3711C17.4651 24.477 16.8426 25.9762 16.84 27.5401Z" fill="#6C7070"/>
<path id="Vector_2" d="M19.79 27.5398C19.7801 28.1373 19.9489 28.7241 20.2747 29.225C20.6005 29.726 21.0685 30.1182 21.6186 30.3514C22.1688 30.5846 22.7761 30.6483 23.3627 30.5341C23.9492 30.4199 24.4883 30.1332 24.9109 29.7107C25.3334 29.2881 25.6201 28.749 25.7343 28.1625C25.8485 27.5759 25.7848 26.9686 25.5516 26.4184C25.3184 25.8683 24.9261 25.4003 24.4252 25.0745C23.9243 24.7487 23.3374 24.5799 22.74 24.5898C21.9616 24.6026 21.2187 24.9176 20.6682 25.468C20.1178 26.0185 19.8028 26.7614 19.79 27.5398Z" fill="#0010BF"/>
<path id="Vector_3" d="M36.52 21.0298H18.51L10.45 29.5898M36.52 23.0898H16.64" stroke="#0010BF" stroke-width="3.28"/>
</g>
</svg>
