<svg width="52" height="52" viewBox="0 0 52 52" fill="none" xmlns="http://www.w3.org/2000/svg">
<g id="eyes-09">
<path id="Vector" d="M12.57 18.3098C10.7826 21.6824 10.0641 25.5191 10.51 29.3098C11.18 34.9698 12.29 36.8798 12.29 36.8798H32.18C32.18 36.8798 37.57 25.5698 30.06 19.3498C21.82 12.5498 12.57 18.3098 12.57 18.3098Z" fill="white"/>
<path id="Vector_2" d="M10.4301 26.8799C10.4301 28.6599 10.9579 30.4 11.9468 31.88C12.9358 33.3601 14.3414 34.5136 15.9859 35.1948C17.6304 35.876 19.44 36.0542 21.1859 35.707C22.9317 35.3597 24.5353 34.5025 25.794 33.2438C27.0527 31.9852 27.9099 30.3815 28.2571 28.6357C28.6044 26.8899 28.4262 25.0803 27.745 23.4357C27.0638 21.7912 25.9102 20.3856 24.4302 19.3967C22.9501 18.4077 21.2101 17.8799 19.4301 17.8799C17.0431 17.8799 14.7539 18.8281 13.0661 20.5159C11.3783 22.2037 10.4301 24.4929 10.4301 26.8799Z" fill="#6C7070"/>
<path id="Vector_3" d="M15 26.8699C14.998 27.7603 15.2603 28.6313 15.7535 29.3727C16.2468 30.114 16.9489 30.6923 17.771 31.0345C18.5931 31.3766 19.4982 31.4671 20.3718 31.2946C21.2453 31.1221 22.0481 30.6943 22.6784 30.0654C23.3088 29.4365 23.7384 28.6347 23.9128 27.7615C24.0872 26.8883 23.9987 25.983 23.6584 25.1601C23.3181 24.3373 22.7413 23.6339 22.0011 23.139C21.2609 22.6441 20.3905 22.3799 19.5 22.3799C18.3083 22.3799 17.1652 22.8526 16.3216 23.6944C15.4779 24.5361 15.0027 25.6781 15 26.8699Z" fill="#0010BF"/>
<path id="Vector_4" d="M33.65 37.3902C33.65 37.3902 36.76 26.4802 29.25 20.2602C21.01 13.4402 10.66 19.0602 10.66 19.0602" stroke="#0010BF" stroke-width="3.28"/>
</g>
</svg>
