<svg width="52" height="52" viewBox="0 0 52 52" fill="none" xmlns="http://www.w3.org/2000/svg">
<g id="eyes-21">
<path id="Vector" d="M12.25 28.0001C12.25 29.4064 12.667 30.781 13.4483 31.9502C14.2295 33.1195 15.3399 34.0308 16.6391 34.5689C17.9383 35.1071 19.3679 35.2479 20.7471 34.9735C22.1263 34.6992 23.3932 34.022 24.3875 33.0277C25.3819 32.0333 26.059 30.7664 26.3334 29.3872C26.6077 28.008 26.4669 26.5784 25.9288 25.2793C25.3906 23.9801 24.4793 22.8696 23.3101 22.0884C22.1409 21.3071 20.7662 20.8901 19.36 20.8901C17.4743 20.8901 15.6659 21.6392 14.3325 22.9726C12.9991 24.306 12.25 26.1144 12.25 28.0001Z" fill="#6C7070"/>
<path id="Vector_2" d="M15.7999 28.0002C15.798 28.7047 16.0051 29.394 16.395 29.9807C16.785 30.5675 17.3403 31.0253 17.9906 31.2963C18.641 31.5673 19.3571 31.6392 20.0483 31.503C20.7395 31.3668 21.3748 31.0285 21.8737 30.531C22.3726 30.0336 22.7126 29.3992 22.8508 28.7084C22.989 28.0176 22.919 27.3012 22.6499 26.6502C22.3807 25.9991 21.9245 25.4425 21.3388 25.0509C20.7532 24.6592 20.0645 24.4502 19.3599 24.4502C18.4183 24.4528 17.5158 24.8274 16.8491 25.4923C16.1823 26.1572 15.8052 27.0586 15.7999 28.0002Z" fill="#0010BF"/>
<path id="Vector_3" d="M30.0001 15.4901C31.3467 16.1037 32.5529 16.9876 33.5438 18.0868C34.5346 19.186 35.289 20.4771 35.7601 21.8801C36.9101 25.3201 35.5201 30.0801 35.3501 30.6901H32.0401C31.9732 29.3135 32.0401 27.9337 32.2401 26.5701C32.5914 25.413 32.6566 24.1879 32.4301 23.0001C32.1072 22.0542 31.5948 21.1842 30.9242 20.4432C30.2537 19.7021 29.439 19.1056 28.5301 18.6901C27.1308 18.121 25.6311 17.8401 24.1208 17.8642C22.6104 17.8883 21.1205 18.2168 19.7401 18.8301C11.8501 21.8701 9.10006 32.9201 9.21006 33.0001L6.06006 32.4201C6.06006 31.8801 7.64006 19.2601 18.3301 15.2201C20.1958 14.4884 22.1886 14.1354 24.1922 14.1818C26.1958 14.2281 28.1701 14.6729 30.0001 15.4901Z" fill="#00FFFF"/>
<path id="Vector_4" d="M41.05 28.72L33.78 30.55L33.21 27.32L40.67 26.56L41.05 28.72ZM39.29 21.88L33.14 26.18L31.46 23.36L38.17 20L39.29 21.88Z" fill="#0010BF"/>
<path id="Vector_5" d="M7.66003 32.82C7.66003 32.82 9.91003 22.69 18.66 19.93C26.53 17.44 33.42 21.22 33.66 30.73" stroke="#0010BF" stroke-width="3.28"/>
</g>
</svg>
