<svg width="52" height="52" viewBox="0 0 52 52" fill="none" xmlns="http://www.w3.org/2000/svg">
<g id="eyes-47">
<path id="Vector" d="M8.44996 26.0802C8.45193 23.725 9.15212 21.4233 10.462 19.4661C11.7719 17.5088 13.6327 15.9838 15.8091 15.0839C17.9856 14.184 20.38 13.9496 22.6896 14.4102C24.9993 14.8709 27.1205 16.006 28.7851 17.6721C30.4498 19.3381 31.5831 21.4603 32.0418 23.7703C32.5006 26.0804 32.2641 28.4746 31.3624 30.6502C30.4607 32.8259 28.9341 34.6854 26.9758 35.9937C25.0174 37.3019 22.7151 38.0002 20.36 38.0002C18.7951 38.0002 17.2455 37.6918 15.7999 37.0926C14.3542 36.4935 13.0409 35.6153 11.9348 34.5083C10.8287 33.4013 9.95162 32.0872 9.35368 30.641C8.75573 29.1949 8.44864 27.6451 8.44996 26.0802Z" fill="white"/>
<path id="Vector_2" d="M8.51001 26.0802C8.50804 23.7361 9.20134 21.444 10.5022 19.494C11.8031 17.544 13.6532 16.0236 15.8183 15.1251C17.9834 14.2267 20.3664 13.9906 22.6657 14.4467C24.965 14.9028 27.0774 16.0306 28.7357 17.6875C30.3939 19.3443 31.5235 21.4558 31.9816 23.7547C32.4396 26.0537 32.2055 28.4368 31.3089 30.6027C30.4123 32.7686 28.8935 34.6199 26.9446 35.9224C24.9956 37.225 22.7041 37.9202 20.36 37.9202C17.2189 37.9202 14.2064 36.6731 11.9843 34.453C9.76231 32.2328 8.51266 29.2213 8.51001 26.0802Z" stroke="#0010BF" stroke-width="3.28"/>
<path id="Vector_3" d="M13.3101 26.0801C13.3101 27.4645 13.7206 28.8179 14.4898 29.9691C15.2589 31.1202 16.3522 32.0174 17.6313 32.5472C18.9104 33.077 20.3178 33.2157 21.6757 32.9456C23.0336 32.6755 24.2808 32.0088 25.2598 31.0298C26.2388 30.0509 26.9055 28.8036 27.1756 27.4457C27.4457 26.0878 27.307 24.6804 26.7772 23.4013C26.2474 22.1222 25.3502 21.029 24.199 20.2598C23.0479 19.4906 21.6945 19.0801 20.3101 19.0801C18.4576 19.0932 16.6847 19.8349 15.3748 21.1448C14.0649 22.4547 13.3232 24.2276 13.3101 26.0801Z" fill="#6C7070"/>
<path id="Vector_4" d="M16.84 26.0798C16.84 26.7784 17.0473 27.4613 17.4356 28.042C17.8239 28.6227 18.3758 29.0751 19.0214 29.342C19.667 29.6089 20.3773 29.6782 21.0623 29.5412C21.7473 29.4042 22.3763 29.067 22.8696 28.5723C23.3629 28.0776 23.6983 27.4477 23.8334 26.7623C23.9684 26.0769 23.8971 25.3668 23.6284 24.722C23.3597 24.0771 22.9057 23.5265 22.3238 23.1398C21.742 22.7532 21.0586 22.5478 20.36 22.5498C19.4255 22.5524 18.5302 22.9255 17.8703 23.5872C17.2105 24.2489 16.84 25.1453 16.84 26.0798ZM40.5 26.4298L33.65 26.9998V23.4898L40.5 24.0798V26.4298ZM39.26 19.1498L33.18 22.3498L31.81 19.0998L38.35 16.9998L39.26 19.1498ZM35.29 12.9198L30.94 18.2398L28.41 15.7798L33.61 11.2798L35.29 12.9198Z" fill="#0010BF"/>
</g>
</svg>
