<svg width="52" height="52" viewBox="0 0 52 52" fill="none" xmlns="http://www.w3.org/2000/svg">
<g id="eyes-04">
<path id="Vector" d="M34 26C34 23.6266 33.2962 21.3066 31.9776 19.3332C30.6591 17.3598 28.7849 15.8217 26.5922 14.9135C24.3995 14.0052 21.9867 13.7676 19.6589 14.2306C17.3312 14.6936 15.193 15.8365 13.5147 17.5147C11.8365 19.193 10.6936 21.3312 10.2306 23.6589C9.76756 25.9867 10.0052 28.3995 10.9135 30.5922C11.8217 32.7849 13.3598 34.6591 15.3332 35.9776C17.3066 37.2962 19.6266 38 22 38C25.1826 38 28.2348 36.7357 30.4853 34.4853C32.7357 32.2349 34 29.1826 34 26Z" fill="white"/>
<path id="Vector_2" d="M28.55 26.0002C28.55 27.3005 28.1642 28.5715 27.4414 29.6524C26.7186 30.7332 25.6913 31.5753 24.4896 32.072C23.288 32.5687 21.9659 32.6976 20.6909 32.4425C19.4159 32.1873 18.2453 31.5596 17.3273 30.6388C16.4092 29.7179 15.7851 28.5454 15.5338 27.2696C15.2826 25.9939 15.4156 24.6722 15.9159 23.4721C16.4162 22.2719 17.2614 21.2472 18.3445 20.5277C19.4276 19.8082 20.6998 19.4262 22 19.4302C23.739 19.4355 25.405 20.13 26.6328 21.3616C27.8606 22.5931 28.55 24.2612 28.55 26.0002Z" fill="#6C7070"/>
<path id="Vector_3" d="M25.2699 26C25.2699 26.6516 25.0765 27.2884 24.7141 27.8299C24.3517 28.3714 23.8366 28.793 23.2343 29.0415C22.632 29.2899 21.9694 29.3538 21.3307 29.2253C20.692 29.0967 20.1058 28.7814 19.6465 28.3192C19.1872 27.8571 18.8754 27.269 18.7507 26.6295C18.6261 25.99 18.6941 25.3279 18.9462 24.7271C19.1982 24.1263 19.623 23.6138 20.1667 23.2547C20.7104 22.8956 21.3484 22.7061 21.9999 22.71C22.4307 22.7113 22.8569 22.7975 23.2544 22.9635C23.6518 23.1296 24.0127 23.3723 24.3163 23.6778C24.62 23.9833 24.8605 24.3456 25.0241 24.7441C25.1877 25.1425 25.2713 25.5693 25.2699 26Z" fill="#0010BF"/>
<path id="Vector_4" d="M33.9301 26.0001C33.9202 23.6379 33.2104 21.3316 31.8904 19.3726C30.5705 17.4136 28.6995 15.8898 26.5139 14.9936C24.3284 14.0973 21.9262 13.869 19.6109 14.3373C17.2956 14.8057 15.171 15.9497 13.5055 17.6249C11.8401 19.3001 10.7085 21.4314 10.2537 23.7494C9.79893 26.0674 10.0413 28.4682 10.9503 30.6485C11.8593 32.8288 13.3941 34.6908 15.3608 35.9993C17.3275 37.3078 19.6379 38.004 22.0001 38.0001C23.5719 37.9975 25.1278 37.6848 26.5785 37.0799C28.0293 36.4751 29.3466 35.59 30.4548 34.4753C31.563 33.3606 32.4404 32.0382 33.0367 30.5839C33.6331 29.1296 33.9366 27.5719 33.9301 26.0001Z" stroke="#0010BF" stroke-width="3.28"/>
</g>
</svg>
