<svg width="52" height="52" viewBox="0 0 52 52" fill="none" xmlns="http://www.w3.org/2000/svg">
<g id="eyes-16">
<path id="Vector" d="M22.44 18.0801C30.36 18.0801 35.64 20.7201 35.64 26.0001C35.64 31.2801 30.36 33.9201 22.44 33.9201C14.52 33.9201 9.22998 31.2801 9.22998 26.0001C9.22998 20.7201 14.51 18.0801 22.44 18.0801Z" fill="white"/>
<path id="Vector_2" d="M15.6799 26C15.678 27.3374 16.0727 28.6454 16.8143 29.7584C17.5559 30.8714 18.611 31.7394 19.8461 32.2526C21.0811 32.7657 22.4406 32.901 23.7526 32.6413C25.0646 32.3816 26.27 31.7386 27.2164 30.7936C28.1628 29.8486 28.8077 28.6441 29.0693 27.3325C29.331 26.0209 29.1977 24.6612 28.6863 23.4254C28.175 22.1896 27.3085 21.1332 26.1966 20.39C25.0847 19.6467 23.7774 19.25 22.4399 19.25C20.6488 19.25 18.9309 19.9608 17.6634 21.2264C16.396 22.492 15.6826 24.2089 15.6799 26Z" fill="#6C7070"/>
<path id="Vector_3" d="M19.0601 26.0001C19.0601 26.6686 19.2583 27.3221 19.6297 27.8779C20.0011 28.4338 20.529 28.867 21.1466 29.1228C21.7642 29.3787 22.4438 29.4456 23.0995 29.3152C23.7551 29.1848 24.3574 28.8628 24.8301 28.3901C25.3028 27.9174 25.6247 27.3152 25.7551 26.6595C25.8855 26.0039 25.8186 25.3243 25.5628 24.7066C25.3069 24.089 24.8737 23.5611 24.3179 23.1897C23.762 22.8183 23.1086 22.6201 22.4401 22.6201C21.5436 22.6201 20.6839 22.9762 20.05 23.6101C19.4162 24.244 19.0601 25.1037 19.0601 26.0001Z" fill="#0010BF"/>
<path id="Vector_4" d="M22.44 18.0801C30.36 18.0801 35.64 20.7201 35.64 26.0001C35.64 31.2801 30.36 33.9201 22.44 33.9201C14.52 33.9201 9.22998 31.2801 9.22998 26.0001C9.22998 20.7201 14.51 18.0801 22.44 18.0801Z" stroke="#0010BF" stroke-width="3.28"/>
</g>
</svg>
