<svg width="52" height="52" viewBox="0 0 52 52" fill="none" xmlns="http://www.w3.org/2000/svg">
<g id="eyes-52">
<path id="Vector" d="M34.27 26.0002C34.3097 26.332 34.3297 26.666 34.33 27.0002C34.33 32.7902 28.33 37.4902 20.96 37.4902C13.59 37.4902 7.59998 32.8402 7.59998 27.0502V26.3702C11.9226 25.1257 16.4018 24.5094 20.9 24.5402C25.4036 24.3834 29.9063 24.8751 34.27 26.0002Z" fill="white"/>
<path id="Vector_2" d="M13.05 24.7998C12.8257 25.9168 12.8375 27.0684 13.0847 28.1806C13.3318 29.2927 13.8089 30.3409 14.4851 31.2578C15.1614 32.1747 16.022 32.94 17.0115 33.5046C18.0011 34.0692 19.0979 34.4205 20.2313 34.5361C21.3647 34.6517 22.5098 34.5289 23.593 34.1757C24.6761 33.8225 25.6735 33.2467 26.5209 32.4852C27.3683 31.7237 28.0471 30.7934 28.5137 29.754C28.9802 28.7146 29.2242 27.5891 29.23 26.4498C29.2323 26.0853 29.2089 25.7211 29.16 25.3598" fill="#6C7070"/>
<path id="Vector_3" d="M17.15 25.2499C17.0293 25.6384 16.9686 26.043 16.97 26.4499C16.9426 27.0033 17.0279 27.5566 17.2209 28.076C17.4138 28.5955 17.7103 29.0703 18.0923 29.4717C18.4743 29.8731 18.9339 30.1927 19.4432 30.4111C19.9525 30.6294 20.5008 30.742 21.055 30.742C21.6091 30.742 22.1574 30.6294 22.6667 30.4111C23.176 30.1927 23.6356 29.8731 24.0177 29.4717C24.3997 29.0703 24.6961 28.5955 24.8891 28.076C25.082 27.5566 25.1674 27.0033 25.14 26.4499C25.143 25.9036 25.0341 25.3625 24.82 24.8599" fill="#0010BF"/>
<path id="Vector_4" d="M7.64001 26.3699C11.9627 25.1254 16.4419 24.5091 20.94 24.5399C25.4303 24.387 29.9193 24.8786 34.27 25.9999" stroke="#0010BF" stroke-width="2.93"/>
<path id="Vector_5" d="M7.59998 27.0501C7.59998 32.8401 13.6 37.5401 20.96 37.5401C28.32 37.5401 34.33 32.8401 34.33 27.0501C34.33 21.2601 28.35 16.5601 21 16.5601C13.65 16.5601 7.59998 21.2601 7.59998 27.0501Z" stroke="#0010BF" stroke-width="3.28"/>
</g>
</svg>
