<svg width="52" height="52" viewBox="0 0 52 52" fill="none" xmlns="http://www.w3.org/2000/svg">
<g id="glasses-14">
<path id="Vector" d="M26 42.0902C34.8863 42.0902 42.09 34.8864 42.09 26.0002C42.09 17.1139 34.8863 9.91016 26 9.91016C17.1137 9.91016 9.91 17.1139 9.91 26.0002C9.91 34.8864 17.1137 42.0902 26 42.0902Z" fill="white" stroke="#BFBEBD" stroke-width="2.48"/>
<path id="Subtract" fill-rule="evenodd" clip-rule="evenodd" d="M33.64 19.7701C36.31 19.7701 38.18 20.4501 39.31 21.7701C39.7886 22.3683 40.129 23.0648 40.3071 23.8099C40.4852 24.5549 40.4964 25.3302 40.34 26.0801C39.8 29.5101 36.71 30.7401 34 30.7401C32.8729 30.7417 31.7601 30.4879 30.7452 29.9977C29.7302 29.5076 28.8395 28.7938 28.14 27.9101C27.554 27.0375 27.0613 26.1057 26.67 25.1301C26.5984 25.0198 26.4983 24.931 26.3804 24.8729C26.2625 24.8148 26.1311 24.7897 26 24.8001C25.8614 24.7817 25.7205 24.8041 25.5944 24.8645C25.4684 24.9248 25.3626 25.0206 25.29 25.1401C24.8945 26.1137 24.402 27.0451 23.82 27.9201C23.1257 28.7972 22.2431 29.507 21.2374 29.9969C20.2317 30.4868 19.1287 30.7442 18.01 30.7501C15.3 30.7501 12.22 29.5201 11.68 26.0901C11.5167 25.3425 11.5217 24.5679 11.6946 23.8225C11.8676 23.077 12.2042 22.3794 12.68 21.7801C13.81 20.4401 15.71 19.7801 18.35 19.7801C19.8809 19.7753 21.3891 20.1498 22.74 20.8701L22.91 20.9701C23.1702 21.1319 23.4206 21.3089 23.66 21.5001C24.3133 22.106 25.1244 22.515 26 22.6801C26.8767 22.5122 27.6879 22.0996 28.34 21.4901C28.5777 21.2965 28.8282 21.1195 29.09 20.9601L29.25 20.8601C30.6006 20.139 32.109 19.7645 33.64 19.7701ZM13.56 22.5202C14.46 21.4602 16.07 20.9302 18.36 20.9302C20.1 20.9302 22.33 21.5302 23.41 22.8702C23.6627 23.1843 23.8386 23.5531 23.9237 23.9472C24.0088 24.3413 24.0006 24.7498 23.9 25.1402C23.5551 26.4306 22.7894 27.569 21.7243 28.3751C20.6592 29.1812 19.3556 29.6088 18.02 29.5902C15.82 29.5902 13.24 28.6202 12.82 25.9102C12.6907 25.3252 12.69 24.7192 12.8177 24.1339C12.9455 23.5486 13.1987 22.998 13.56 22.5202ZM38.44 22.5202C37.54 21.4602 35.93 20.9302 33.64 20.9302C31.9 20.9302 29.67 21.5302 28.59 22.8702C28.3352 23.1831 28.158 23.5519 28.0728 23.9464C27.9876 24.3409 27.997 24.75 28.1 25.1402C28.4445 26.4289 29.2087 27.5661 30.2717 28.372C31.3348 29.1779 32.6361 29.6065 33.97 29.5902C36.18 29.5902 38.75 28.6202 39.18 25.9102C39.3073 25.3251 39.307 24.7195 39.1793 24.1346C39.0517 23.5496 38.7995 22.999 38.44 22.5202Z" fill="#030303"/>
<path id="Vector_2" d="M18.36 20.9302C16.07 20.9302 14.46 21.4602 13.56 22.5202C13.1987 22.998 12.9455 23.5486 12.8177 24.1339C12.69 24.7192 12.6907 25.3252 12.82 25.9102C13.24 28.6202 15.82 29.5902 18.02 29.5902C19.3556 29.6088 20.6592 29.1812 21.7243 28.3751C22.7894 27.569 23.5551 26.4306 23.9 25.1402C24.0006 24.7498 24.0088 24.3413 23.9237 23.9472C23.8386 23.5531 23.6627 23.1843 23.41 22.8702C22.33 21.5302 20.1 20.9302 18.36 20.9302ZM33.64 20.9302C35.93 20.9302 37.54 21.4602 38.44 22.5202C38.7995 22.999 39.0517 23.5496 39.1793 24.1346C39.307 24.7195 39.3073 25.3251 39.18 25.9102C38.75 28.6202 36.18 29.5902 33.97 29.5902C32.6361 29.6065 31.3348 29.1779 30.2717 28.372C29.2087 27.5661 28.4445 26.4289 28.1 25.1402C27.997 24.75 27.9876 24.3409 28.0728 23.9464C28.158 23.5519 28.3352 23.1831 28.59 22.8702C29.67 21.5302 31.9 20.9302 33.64 20.9302Z" fill="#F60000"/>
</g>
</svg>
