<svg width="52" height="52" viewBox="0 0 52 52" fill="none" xmlns="http://www.w3.org/2000/svg">
    <path
        d="M26.0001 11.0762C18.9611 11.0762 14.6401 17.4002 15.1711 26.0812C15.6351 33.6612 20.0441 39.0002 26.0001 39.0002C31.9561 39.0002 36.3641 33.6632 36.8281 26.0832C37.3601 17.4002 33.0381 11.0762 26.0001 11.0762Z"
        fill="var(--icon-face-fill)" stroke="var(--icon-face-stroke)" stroke-width="2.475"></path>
    <path d="m26 22.2c-12.5 0-12.5 5.9-12.5 1.1 0-4.8 0-12.3 12.5-12.3 12.4 0 12.4 7.5 12.4 12.3 0 4.8 0-1.1-12.4-1.1z"
        fill="var(--icon-hat-fill)"></path>
    <path d="m26 20.3c-13.1 0-13.1 7-13.1 1.9 0-5.1 0-12.9 13.1-12.9 13 0 13 7.8 13 12.9 0 5.1 0-1.9-13-1.9z"
        fill="var(--icon-hat-stroke)"></path>
    <path
        d="m25.9 19.1c-0.5 0-1-2-1-4.6 0-2.5 0.5-4.6 1-4.6 0.6 0 1 2.1 1 4.6 0 2.6-0.4 4.6-1 4.6zm-3.9-0.3c-0.5 0.3-3.1-1.3-4-2.9-0.9-1.6-0.5-3.3 0-3.5 0.5-0.3 0.8 1.3 1.8 2.9 0.9 1.6 2.7 3.2 2.2 3.5zm10.4-3.5c0.9-1.6 1.3-3.2 1.8-2.9 0.5 0.2 0.9 1.9 0 3.5-0.9 1.6-3.5 3.2-4 2.9-0.5-0.3 1.3-1.9 2.2-3.5z"
        fill="var(--icon-hat-fill)"></path>
</svg>