<svg width="52" height="52" viewBox="0 0 52 52" fill="none" xmlns="http://www.w3.org/2000/svg">
<path d="M25.8719 11.061C18.8339 11.061 14.5129 17.385 15.0439 26.061C15.5079 33.641 19.9169 38.978 25.8719 38.978C31.8269 38.978 36.2359 33.641 36.6999 26.061C37.2309 17.385 32.9099 11.061 25.8719 11.061Z" fill="white" stroke="#6F6F6F" stroke-width="2.475"/>
<path d="M16.8423 20.4963L16.8725 20.5H16.9029H34.0971H34.1275L34.1577 20.4963C35.8778 20.2865 37.4019 19.7265 38.5082 19.0481C39.0607 18.7094 39.5236 18.3321 39.8545 17.9402C40.1549 17.5842 40.382 17.1728 40.4131 16.7395C40.4947 16.5063 40.5399 16.2182 40.4529 15.9059C40.3539 15.5507 40.1061 15.2438 39.7276 14.984C39.0468 14.5168 37.8236 14.1205 35.7514 13.8289L36.183 7.39736C36.25 6.52084 35.5469 5.53705 33.9699 4.80679C32.3643 4.06325 29.7139 3.5 25.5 3.5C21.2861 3.5 18.6357 4.06325 17.0301 4.80679C15.4531 5.53706 14.7499 6.52088 14.817 7.39741L15.2486 13.8289C13.1764 14.1205 11.9532 14.5168 11.2724 14.984C10.8939 15.2438 10.6461 15.5507 10.5471 15.9059C10.4601 16.2182 10.5053 16.5063 10.5869 16.7395C10.618 17.1728 10.8451 17.5842 11.1455 17.9402C11.4764 18.3321 11.9393 18.7094 12.4918 19.0481C13.5981 19.7265 15.1222 20.2865 16.8423 20.4963Z" fill="#808080" stroke="#404040"/>
<path d="M15.7277 13.5L15.7789 14.2628C23.4601 13.9586 27.7154 13.9141 35.2211 14.2628L35.2723 13.5C27.6703 13.1249 23.3861 13.1563 15.7277 13.5Z" fill="#404040"/>
</svg>
