<svg width="52" height="52" viewBox="0 0 52 52" fill="none" xmlns="http://www.w3.org/2000/svg">
<path d="M26.0001 11.061C18.9621 11.061 14.6411 17.385 15.1721 26.061C15.6361 33.641 20.0451 38.978 26.0001 38.978C31.9551 38.978 36.3641 33.641 36.8281 26.061C37.3591 17.385 33.0381 11.061 26.0001 11.061Z" fill="white" stroke="#6F6F6F" stroke-width="2.475"/>
<path d="M26 7.34814C19.41 7.34814 13.238 12.9951 13.238 22.8171C13.238 22.8171 17.714 20.3421 26 20.3421C34.286 20.3421 38.763 22.8171 38.763 22.8171C38.762 13.0001 32.589 7.34814 26 7.34814Z" fill="#808080"/>
<path d="M22.5661 14.1139L22.8201 20.4709C23.2201 20.4399 23.6351 20.4139 24.0591 20.3939L23.8811 14.0699L22.5661 14.1139ZM25.4221 20.3529C25.6161 20.3529 25.8021 20.3419 25.9991 20.3419C26.2281 20.3419 26.4401 20.3509 26.6631 20.3549V14.0249L25.3361 14.0409L25.4221 20.3529ZM19.7991 14.2529L20.1991 20.7779C20.5937 20.7159 21.0047 20.6596 21.4321 20.6089L21.1001 14.1839L19.7991 14.2529ZM13.2371 22.8149C13.2371 22.8149 13.3811 22.7379 13.6461 22.6149L13.4331 19.9099C13.3019 20.8733 13.2364 21.8446 13.2371 22.8169V22.8149ZM17.0741 14.4419L17.5921 21.2939C17.9741 21.2009 18.3841 21.1109 18.8141 21.0239L18.3491 14.3469L17.0741 14.4419ZM15.0001 14.6059C14.8181 14.9769 14.6481 15.3599 14.4921 15.7589L15.0041 22.0649C15.3551 21.9379 15.7631 21.8049 16.2181 21.6649L15.6501 14.5509L15.0001 14.6059ZM27.9371 20.3939C28.3611 20.4139 28.7761 20.4399 29.1761 20.4709L29.4301 14.1139L28.1151 14.0699L27.9371 20.3939ZM36.3371 14.5539L35.7681 21.6679C36.2231 21.8049 36.6321 21.9379 36.9831 22.0679L37.4951 15.7619C37.3391 15.3619 37.1681 14.9799 36.9851 14.6089L36.3371 14.5539ZM38.5581 19.9139L38.3461 22.6139C38.6091 22.7359 38.7531 22.8139 38.7531 22.8139C38.7563 21.8442 38.6941 20.8753 38.5671 19.9139H38.5581ZM33.1761 21.0269C33.6061 21.1129 34.0161 21.2029 34.3991 21.2959L34.9161 14.4439L33.6411 14.3439L33.1761 21.0269ZM30.5621 20.6109C30.9891 20.6619 31.3991 20.7179 31.7951 20.7799L32.1951 14.2549L30.8951 14.1839L30.5621 20.6109Z" fill="#404040"/>
<path d="M14.9531 14.7101C14.7032 15.2293 14.4812 15.7614 14.2881 16.3041C18.0221 14.8654 21.9991 14.1618 26.0001 14.2321C30.0002 14.1605 33.9765 14.8627 37.7101 16.3001C37.518 15.7572 37.2967 15.2251 37.0471 14.7061C33.4873 13.5186 29.7523 12.9418 26.0001 13.0001C22.2477 12.9431 18.5126 13.5213 14.9531 14.7101ZM33.1571 11.7521C33.2701 11.791 33.3912 11.8003 33.5088 11.7791C33.6265 11.758 33.7367 11.707 33.8291 11.6311L34.4941 11.0221C34.3288 10.8515 34.1598 10.6848 33.9871 10.5221C33.9469 10.5419 33.9093 10.5664 33.8751 10.5951L33.0811 11.3231C33.0419 11.3483 33.011 11.3845 32.9923 11.4272C32.9736 11.4698 32.968 11.5171 32.9761 11.563C32.9842 11.6089 33.0057 11.6513 33.038 11.685C33.0702 11.7186 33.1116 11.742 33.1571 11.7521ZM32.5731 9.40014C32.1524 9.11253 31.7139 8.852 31.2601 8.62014C31.2414 8.65056 31.2302 8.68497 31.2274 8.72055C31.2246 8.75613 31.2303 8.79187 31.2439 8.82484C31.2576 8.85781 31.2788 8.88708 31.306 8.91025C31.3331 8.93342 31.3654 8.94984 31.4001 8.95814L32.4001 9.36414C32.4556 9.38493 32.5139 9.39707 32.5731 9.40014ZM24.3181 10.3601L25.5021 10.9361C25.6425 10.995 25.7933 11.0254 25.9456 11.0254C26.0979 11.0254 26.2486 10.995 26.3891 10.9361C26.6341 10.8171 26.6341 10.6231 26.3891 10.5041L25.2061 9.92814C25.0656 9.86874 24.9146 9.83813 24.7621 9.83813C24.6096 9.83813 24.4586 9.86874 24.3181 9.92814C24.0731 10.0481 24.0731 10.2421 24.3181 10.3611V10.3601ZM25.9181 8.45214C26.0582 8.51155 26.2089 8.54217 26.3611 8.54217C26.5133 8.54217 26.6639 8.51155 26.8041 8.45214L27.9881 7.87614C28.1691 7.78814 28.2141 7.65914 28.1291 7.55014C27.8218 7.49116 27.5122 7.44511 27.2011 7.41214C27.1669 7.41994 27.1334 7.43065 27.1011 7.44414L25.9181 8.02014C25.6741 8.14014 25.6741 8.33414 25.9201 8.45314L25.9181 8.45214ZM33.3601 10.8521C33.3982 10.8264 33.4281 10.7902 33.446 10.7478C33.4639 10.7055 33.4691 10.6588 33.4609 10.6135C33.4528 10.5682 33.4316 10.5263 33.4 10.4929C33.3684 10.4594 33.3278 10.4359 33.2831 10.4251L32.2831 10.0201C32.1697 9.98103 32.0482 9.97171 31.9301 9.99308C31.8121 10.0144 31.7016 10.0658 31.6091 10.1421C31.5712 10.1678 31.5415 10.2039 31.5237 10.2461C31.506 10.2883 31.5009 10.3347 31.509 10.3798C31.5172 10.4248 31.5383 10.4665 31.5697 10.4998C31.6011 10.533 31.6416 10.5564 31.6861 10.5671L32.6861 10.9731C32.7997 11.0128 32.9215 11.0224 33.0399 11.0012C33.1584 10.98 33.2693 10.9287 33.3621 10.8521H33.3601ZM24.3181 8.72814L25.5001 9.30014C25.6405 9.35903 25.7913 9.38936 25.9436 9.38936C26.0959 9.38936 26.2466 9.35903 26.3871 9.30014C26.6321 9.18114 26.6321 8.98714 26.3871 8.86814L25.2061 8.30014C25.0657 8.24029 24.9147 8.20944 24.7621 8.20944C24.6095 8.20944 24.4585 8.24029 24.3181 8.30014C24.0731 8.41414 24.0731 8.60714 24.3181 8.72814ZM34.8371 12.0851C34.724 12.0459 34.6028 12.0364 34.4849 12.0574C34.3671 12.0784 34.2567 12.1293 34.1641 12.2051L33.3641 12.9341C33.3257 12.9596 33.2957 12.9957 33.2777 13.0381C33.2597 13.0804 33.2546 13.1271 33.2629 13.1724C33.2712 13.2176 33.2926 13.2595 33.3245 13.2927C33.3563 13.3259 33.3972 13.349 33.4421 13.3591C33.5548 13.3989 33.6758 13.4087 33.7934 13.3876C33.911 13.3666 34.0212 13.3154 34.1131 13.2391L34.9131 12.5101C34.9514 12.4848 34.9815 12.4489 34.9996 12.4067C35.0177 12.3644 35.0231 12.3178 35.015 12.2726C35.0069 12.2274 34.9858 12.1856 34.9541 12.1522C34.9225 12.1189 34.8818 12.0956 34.8371 12.0851ZM32.8681 10.1431C32.9672 10.1771 33.0727 10.1881 33.1766 10.1752C33.2806 10.1624 33.3802 10.1261 33.4681 10.0691C33.2801 9.91514 33.0891 9.76914 32.8951 9.62514L32.7951 9.71814C32.7567 9.74323 32.7266 9.77897 32.7083 9.82098C32.69 9.863 32.6843 9.90944 32.6921 9.9546C32.6999 9.99977 32.7206 10.0417 32.7519 10.0752C32.7832 10.1087 32.8236 10.1323 32.8681 10.1431ZM33.5751 12.0341L32.5751 11.6281C32.4619 11.5888 32.3404 11.5791 32.2224 11.6001C32.1044 11.6211 31.9938 11.6721 31.9011 11.7481C31.8627 11.7735 31.8327 11.8096 31.8146 11.8519C31.7966 11.8941 31.7913 11.9408 31.7995 11.986C31.8077 12.0313 31.829 12.0731 31.8607 12.1064C31.8925 12.1396 31.9333 12.1628 31.9781 12.1731L32.9781 12.5811C33.0908 12.6201 33.2117 12.6293 33.3291 12.608C33.4464 12.5866 33.5563 12.5353 33.6481 12.4591C33.6864 12.4341 33.7166 12.3983 33.7349 12.3563C33.7532 12.3143 33.7588 12.2678 33.7511 12.2227C33.7433 12.1775 33.7225 12.1356 33.6913 12.1021C33.66 12.0686 33.6196 12.045 33.5751 12.0341ZM19.1311 10.1431C19.1759 10.1328 19.2167 10.1096 19.2484 10.0764C19.2802 10.0431 19.3014 10.0013 19.3096 9.95602C19.3178 9.91078 19.3126 9.86413 19.2945 9.82185C19.2765 9.77957 19.2464 9.74351 19.2081 9.71814L19.1081 9.62514C18.9081 9.76614 18.7221 9.91514 18.5341 10.0691C18.6216 10.1257 18.7207 10.1617 18.8241 10.1745C18.9275 10.1873 19.0324 10.1766 19.1311 10.1431ZM19.4231 11.6281L18.4231 12.0341C18.3783 12.0445 18.3375 12.0677 18.3057 12.1009C18.274 12.1342 18.2527 12.176 18.2445 12.2213C18.2363 12.2665 18.2416 12.3132 18.2596 12.3554C18.2777 12.3977 18.3077 12.4338 18.3461 12.4591C18.4384 12.5352 18.5486 12.5863 18.6662 12.6077C18.7838 12.629 18.905 12.6199 19.0181 12.5811L20.0181 12.1731C20.0627 12.1626 20.1032 12.1393 20.1348 12.1061C20.1663 12.0728 20.1875 12.0312 20.1958 11.9861C20.2041 11.941 20.199 11.8945 20.1813 11.8523C20.1636 11.81 20.134 11.7738 20.0961 11.7481C20.0035 11.6723 19.8931 11.6214 19.7752 11.6004C19.6574 11.5794 19.5362 11.5889 19.4231 11.6281ZM27.9901 10.7121C27.8498 10.6528 27.699 10.6222 27.5466 10.6222C27.3942 10.6222 27.2434 10.6528 27.1031 10.7121L25.9201 11.2881C25.6741 11.4081 25.6741 11.6021 25.9201 11.7211C26.0605 11.7796 26.211 11.8096 26.3631 11.8096C26.5151 11.8096 26.6657 11.7796 26.8061 11.7211L27.9901 11.1451C28.2351 11.0251 28.2351 10.8321 27.9901 10.7121ZM17.8341 12.2051C17.7416 12.1294 17.6313 12.0787 17.5137 12.0577C17.3961 12.0367 17.275 12.0461 17.1621 12.0851C17.1176 12.0958 17.0771 12.1193 17.0457 12.1525C17.0143 12.1858 16.9932 12.2275 16.985 12.2725C16.9769 12.3176 16.982 12.364 16.9997 12.4062C17.0175 12.4484 17.0472 12.4845 17.0851 12.5101L17.8801 13.2391C17.9726 13.315 18.0831 13.3659 18.2009 13.3869C18.3188 13.4079 18.44 13.3983 18.5531 13.3591C18.5978 13.3487 18.6385 13.3254 18.6701 13.2921C18.7017 13.2587 18.7229 13.2169 18.731 13.1717C18.7391 13.1264 18.7337 13.0798 18.7156 13.0376C18.6975 12.9954 18.6674 12.9594 18.6291 12.9341L17.8341 12.2051ZM26.3891 12.1381L25.2061 11.5631C25.0657 11.5033 24.9147 11.4724 24.7621 11.4724C24.6095 11.4724 24.4585 11.5033 24.3181 11.5631C24.0731 11.6821 24.0731 11.8761 24.3181 11.9941L25.5021 12.5701C25.6424 12.6295 25.7932 12.6601 25.9456 12.6601C26.098 12.6601 26.2488 12.6295 26.3891 12.5701C26.6341 12.4511 26.6341 12.2591 26.3891 12.1381ZM18.8411 11.7521C18.8859 11.7417 18.9267 11.7185 18.9585 11.6852C18.9903 11.6519 19.0116 11.61 19.0199 11.5647C19.0282 11.5195 19.0231 11.4728 19.0052 11.4304C18.9872 11.388 18.9573 11.3518 18.9191 11.3261L18.1191 10.5981C18.0848 10.5694 18.0472 10.5449 18.0071 10.5251C17.8341 10.6851 17.6661 10.8511 17.4991 11.0251L18.1651 11.6341C18.2582 11.7102 18.3692 11.761 18.4876 11.7817C18.606 11.8023 18.7278 11.7922 18.8411 11.7521ZM27.9901 9.07814C27.8496 9.01926 27.6989 8.98893 27.5466 8.98893C27.3943 8.98893 27.2435 9.01926 27.1031 9.07814L25.9201 9.65514C25.6741 9.77414 25.6741 9.96714 25.9201 10.0871C26.0602 10.1466 26.2109 10.1772 26.3631 10.1772C26.5153 10.1772 26.6659 10.1466 26.8061 10.0871L27.9901 9.51014C28.2351 9.39114 28.2351 9.20014 27.9901 9.07814ZM26.3901 7.66914C26.5611 7.58614 26.6051 7.46914 26.5381 7.36214C26.3581 7.35514 26.1801 7.34814 26.0001 7.34814C25.6481 7.34814 25.3001 7.36814 24.9491 7.39914L25.5031 7.66914C25.6433 7.72839 25.7939 7.75891 25.9461 7.75891C26.0983 7.75891 26.2499 7.72839 26.3901 7.66914ZM19.4261 9.40014C19.4853 9.39707 19.5436 9.38493 19.5991 9.36414L20.5991 8.95814C20.6338 8.94991 20.6661 8.93351 20.6933 8.91033C20.7204 8.88714 20.7417 8.85782 20.7553 8.82479C20.7688 8.79176 20.7744 8.75598 20.7714 8.72039C20.7684 8.68481 20.757 8.65044 20.7381 8.62014C20.2847 8.85223 19.8465 9.11275 19.4261 9.40014ZM19.7111 10.0191L18.7111 10.4241C18.6664 10.435 18.6259 10.4587 18.5944 10.4922C18.563 10.5257 18.5419 10.5676 18.5339 10.6129C18.5258 10.6581 18.5311 10.7047 18.5491 10.747C18.567 10.7893 18.5969 10.8255 18.6351 10.8511C18.7273 10.9268 18.8374 10.9777 18.9549 10.9989C19.0723 11.02 19.1932 11.0108 19.3061 10.9721L20.3061 10.5661C20.3506 10.5554 20.391 10.532 20.4225 10.4988C20.4539 10.4655 20.475 10.4238 20.4832 10.3788C20.4913 10.3337 20.4862 10.2873 20.4684 10.2451C20.4507 10.2029 20.421 10.1668 20.3831 10.1411C20.2907 10.0653 20.1805 10.0143 20.0628 9.99315C19.9452 9.97197 19.8241 9.98126 19.7111 10.0201V10.0191Z" fill="#404040"/>
</svg>
