<svg width="52" height="52" viewBox="0 0 52 52" fill="none" xmlns="http://www.w3.org/2000/svg">
<path d="M25.8719 11.061C18.8339 11.061 14.5129 17.385 15.0439 26.061C15.5079 33.641 19.9169 38.978 25.8719 38.978C31.8269 38.978 36.2359 33.641 36.6999 26.061C37.2309 17.385 32.9099 11.061 25.8719 11.061Z" fill="white" stroke="#6F6F6F" stroke-width="2.475"/>
<path d="M35.0564 13.8885C35.6164 13.6107 35.9217 13.0244 35.8687 12.4371C36.1735 12.5289 36.4941 12.594 36.8395 12.6311C37.7512 12.729 38.8048 12.6284 40.1524 12.3559C41.1027 12.1637 41.572 11.1243 41.1545 10.2826L39.4207 6.78703C38.9875 5.91361 37.8296 5.68886 37.109 6.36454C36.0902 7.31973 35.2973 8.13655 34.7895 8.90679C34.6417 9.13097 34.5157 9.35481 34.4141 9.58027C33.9806 9.22911 33.3652 9.14101 32.8327 9.40513L30.0636 10.7786C29.5073 11.0545 29.2023 11.6351 29.2503 12.2184C28.1375 11.924 26.8106 12.0254 25.0337 12.3357C24.0628 12.5052 23.5568 13.5604 23.9854 14.4245L25.6582 17.797C26.112 18.7119 27.3423 18.9006 28.0454 18.1526C28.8922 17.2516 29.5957 16.4686 30.0955 15.7328C30.2729 15.4716 30.4284 15.2113 30.5573 14.9483C30.9896 15.4116 31.6905 15.558 32.2873 15.2619L35.0564 13.8885Z" fill="#808080" stroke="#404040" stroke-width="1.17753"/>
</svg>
