<svg width="52" height="52" viewBox="0 0 52 52" fill="none" xmlns="http://www.w3.org/2000/svg">

    <path
        d="m26 44.9c-11.2 0-15.8-13.2-15.8-22 0-8.7 4.6-16.6 15.8-16.6 11.2 0 15.8 7.9 15.8 16.6 0 8.8-4.6 22-15.8 22z"
        fill="var(--icon-hat-fill)"></path>
    <path d="m41.2 29.5c0 14.9 2.1 21.2 2.1 21.2h-34.6c0 0 18.3-3.5 18.3-18.4 0-14.5 14.2-17.7 14.2-2.8z"
        fill="var(--icon-hat-fill)"></path>
    <path d="m10.8 29.5c0 14.9-2.1 21.2-2.1 21.2h34.6c0 0-18.3-3.5-18.3-18.4 0-14.5-14.2-17.7-14.2-2.8z"
        fill="var(--icon-hat-fill)"></path>
    <path
        d="M26.0001 11.0762C18.9611 11.0762 14.6401 17.4002 15.1711 26.0812C15.6351 33.6612 20.0441 39.0002 26.0001 39.0002C31.9561 39.0002 36.3641 33.6632 36.8281 26.0832C37.3601 17.4002 33.0381 11.0762 26.0001 11.0762Z"
        fill="var(--icon-face-fill)" stroke="var(--icon-face-stroke)" stroke-width="2.475"></path>
</svg>